<?xml version="1.0" standalone="no"?>
<!DOCTYPE svg PUBLIC "-//W3C//DTD SVG 20010904//EN"
 "http://www.w3.org/TR/2001/REC-SVG-20010904/DTD/svg10.dtd">
<svg version="1.0" xmlns="http://www.w3.org/2000/svg"
 width="700.000000pt" height="700.000000pt" viewBox="0 0 700.000000 700.000000"
 preserveAspectRatio="xMidYMid meet">
<metadata>
Created by potrace 1.14, written by Peter Selinger 2001-2017
</metadata>
<g transform="translate(0.000000,700.000000) scale(0.100000,-0.100000)"
fill="#000000" stroke="none">
<path d="M3278 6996 c-1 -2 -39 -6 -83 -10 -398 -31 -840 -152 -1210 -332
-180 -87 -448 -247 -555 -331 -8 -6 -51 -40 -95 -74 -353 -275 -673 -651 -897
-1054 -49 -87 -148 -289 -148 -301 0 -2 -9 -23 -20 -47 -57 -123 -157 -435
-186 -582 -2 -11 -10 -54 -19 -95 -29 -147 -35 -194 -52 -370 -15 -163 -8
-592 12 -711 2 -13 6 -46 9 -74 9 -78 22 -152 51 -285 21 -96 91 -339 114
-395 5 -11 29 -74 55 -141 55 -142 169 -372 246 -497 30 -48 60 -95 65 -105
25 -44 135 -194 213 -291 163 -201 342 -378 552 -546 92 -74 370 -265 386
-265 4 0 15 -6 23 -14 26 -22 298 -158 411 -205 267 -111 589 -200 859 -237
25 -3 57 -8 71 -10 163 -25 682 -25 842 1 13 2 46 7 73 10 71 10 87 13 115 18
14 3 43 8 65 12 22 4 76 16 120 27 44 10 87 21 96 23 223 51 591 200 823 334
49 28 90 51 92 51 2 0 58 36 124 81 259 174 486 370 680 588 36 41 70 79 76
85 65 68 263 353 352 508 47 80 182 351 182 364 0 3 8 24 19 47 53 118 147
417 177 562 17 81 54 301 59 350 4 33 9 71 11 85 9 47 11 525 3 605 -15 165
-21 220 -24 225 -2 3 -6 30 -10 60 -9 75 -69 337 -99 435 -189 622 -521 1151
-997 1590 -410 378 -946 668 -1487 805 -121 30 -244 56 -312 65 -19 3 -46 7
-60 10 -13 2 -52 7 -86 11 -33 3 -74 8 -90 10 -32 5 -540 14 -546 10z m-143
-1845 c308 -52 560 -252 667 -529 17 -42 31 -78 33 -80 6 -6 35 11 35 21 0 19
72 151 114 207 150 205 427 357 701 387 80 9 256 9 330 0 199 -22 389 -105
533 -232 142 -124 248 -298 296 -485 25 -96 29 -118 42 -225 7 -61 13 -2335 6
-2367 -4 -17 -34 -18 -456 -18 l-452 0 1 1043 c0 1062 -2 1133 -38 1232 -71
196 -260 316 -487 309 -41 -1 -91 -5 -110 -9 -19 -4 -39 -8 -45 -9 -46 -8
-154 -73 -199 -120 -70 -72 -129 -180 -142 -261 -1 -11 -6 -40 -11 -65 -5 -25
-8 -512 -8 -1082 l0 -1038 -442 0 -443 0 0 1063 c0 1166 1 1139 -61 1265 -56
115 -180 214 -306 243 -271 62 -531 -76 -628 -335 -44 -120 -45 -136 -45
-1213 l0 -1023 -458 0 -457 0 1 1643 c1 903 2 1644 3 1647 2 11 860 6 864 -4
2 -6 3 -135 3 -286 -1 -260 2 -289 27 -290 4 0 25 38 46 84 139 300 405 495
726 532 28 3 51 7 53 9 8 7 245 -4 307 -14z"/>
</g>
</svg>
